#!OML:ASF H:\BabyWalks\Project 1\Capture day 1\Session 1\baby.ASF
:FULLY-SPECIFIED
:DEGREES
307
root 8.57003 17.7471 -16.8334 9.60087 45.5427 -1.45354
lowerback 22.6285 -2.56791 4.40896
upperback 4.14597 -1.75719 3.84216
thorax -8.08315 -0.82891 2.19043
lowerneck -5.5977 -1.65735 6.83263
upperneck -3.0297 -2.66254 -9.09001
head -0.214318 -1.42563 -4.25577
rclavicle -4.41302e-014 4.77083e-015
rhumerus -55.1814 4.07215 -74.0004
rradius 32.408
rwrist 13.659
rhand -4.91815 -15.1055
rfingers 7.12502
rthumb 20.8721 -44.0027
lclavicle -4.41302e-014 4.77083e-015
lhumerus -47.3181 -9.83834 81.6793
lradius 65.6673
lwrist -8.73192
lhand -7.86742 9.00567
lfingers 7.12502
lthumb 18.0364 38.1894
rfemur -26.8481 -0.836783 28.1761
rtibia 34.1177
rfoot -16.9151 -7.97498
rtoes 6.12289
lfemur -16.8935 5.24018 -4.78451
ltibia 56.8558
lfoot -7.85794 -13.6159
ltoes -18.5572
308
root 8.656 17.7414 -16.728 9.32745 44.7688 -1.91915
lowerback 22.7318 -2.26785 4.75158
upperback 4.13197 -1.2661 3.97754
thorax -8.15873 -0.602695 2.00546
lowerneck -5.56546 -1.68251 6.93091
upperneck -3.02882 -2.70163 -9.21252
head -0.226478 -1.44594 -4.31968
rclavicle 1.27222e-014 -1.59028e-014
rhumerus -54.0259 3.94432 -73.8904
rradius 32.0636
rwrist 15.1035
rhand -5.01117 -14.9901
rfingers 7.12502
rthumb 20.7827 -43.8972
lclavicle 1.27222e-014 -1.59028e-014
lhumerus -48.3599 -9.63313 82.8138
lradius 63.717
lwrist -8.96995
lhand -7.24784 9.07365
lfingers 7.12502
lthumb 18.6324 38.2013
rfemur -26.2821 -0.607365 28.5865
rtibia 33.8562
rfoot -17.1819 -7.44969
rtoes 6.11681
lfemur -18.1486 5.26053 -4.57344
ltibia 58.9834
lfoot -8.2445 -14.4725
ltoes -17.9256
309
root 8.74271 17.7375 -16.6231 9.16008 43.9452 -2.2807
lowerback 22.8049 -1.94536 5.01059
upperback 4.11356 -0.772145 4.07641
thorax -8.21874 -0.374561 1.82476
lowerneck -5.54675 -1.7041 7.02129
upperneck -3.01342 -2.7351 -9.31371
head -0.230693 -1.4637 -4.37469
rclavicle -3.22031e-014 0
rhumerus -52.918 3.96724 -73.9248
rradius 31.9644
rwrist 16.3089
rhand -5.18875 -14.8681
rfingers 7.12502
rthumb 20.6121 -43.7937
lclavicle -3.22031e-014 0
lhumerus -49.4113 -9.42765 83.9009
lradius 61.812
lwrist -9.15372
lhand -6.55945 9.12961
lfingers 7.12502
lthumb 19.2945 38.1924
rfemur -25.7405 -0.31907 28.9017
rtibia 33.5975
rfoot -17.439 -6.94423
rtoes 6.12379
lfemur -19.4051 5.30265 -4.49013
ltibia 60.8551
lfoot -8.76238 -15.3725
ltoes -17.4906
310
root 8.83046 17.7361 -16.518 9.10362 43.0718 -2.51838
lowerback 22.8478 -1.59972 5.17051
upperback 4.09328 -0.279466 4.13221
thorax -8.26133 -0.145913 1.6516
lowerneck -5.53885 -1.72323 7.10002
upperneck -2.98683 -2.76426 -9.39015
head -0.228474 -1.47943 -4.41867
rclavicle -2.46493e-014 -2.78299e-014
rhumerus -51.8703 4.14165 -74.0993
rradius 32.1239
rwrist 17.2107
rhand -5.48399 -14.754
rfingers 7.12502
rthumb 20.3283 -43.7101
lclavicle -2.46493e-014 -2.78299e-014
lhumerus -50.4639 -9.24456 84.9391
lradius 59.9578
lwrist -9.28805
lhand -5.81569 9.18275
lfingers 7.12502
lthumb 20.0095 38.1725
rfemur -25.2144 0.0248635 29.1038
rtibia 33.3423
rfoot -17.6912 -6.45889
rtoes 6.13885
lfemur -20.645 5.34225 -4.5561
ltibia 62.4502
lfoot -9.35755 -16.2484
ltoes -17.101
311
root 8.91941 17.7374 -16.4122 9.15316 42.1624 -2.63042
lowerback 22.8599 -1.23577 5.23881
upperback 4.07085 0.206691 4.14004
thorax -8.28778 0.080756 1.47856
lowerneck -5.53725 -1.74278 7.16579
upperneck -2.94982 -2.79273 -9.44051
head -0.22114 -1.49483 -4.45079
rclavicle 4.37326e-014 -5.96354e-014
rhumerus -50.899 4.45971 -74.4083
rradius 32.5562
rwrist 17.7412
rhand -5.92854 -14.6788
rfingers 7.12502
rthumb 19.901 -43.6798
lclavicle 4.37326e-014 -5.96354e-014
lhumerus -51.5153 -9.1148 85.9296
lradius 58.1684
lwrist -9.3744
lhand -5.01918 9.24176
lfingers 7.12502
lthumb 20.775 38.1496
rfemur -24.6975 0.407581 29.1893
rtibia 33.0864
rfoot -17.9399 -5.98865
rtoes 6.15379
lfemur -21.8638 5.35963 -4.77406
ltibia 63.7582
lfoot -10.012 -17.0298
ltoes -16.7799
312
root 9.00916 17.7414 -16.3054 9.28076 41.2312 -2.64991
lowerback 22.8425 -0.857711 5.24065
upperback 4.04388 0.687939 4.10604
thorax -8.30217 0.305847 1.29838
lowerneck -5.53221 -1.76699 7.21793
upperneck -2.9049 -2.82585 -9.46574
head -0.211733 -1.51233 -4.47106
rclavicle 6.83819e-014 -2.14687e-014
rhumerus -50.0185 4.90103 -74.8299
rradius 33.2599
rwrist 17.8603
rhand -6.55091 -14.6551
rfingers 7.12502
rthumb 19.3027 -43.7171
lclavicle 6.83819e-014 -2.14687e-014
lhumerus -52.5666 -9.05608 86.8788
lradius 56.4668
lwrist -9.42079
lhand -4.14671 9.31672
lfingers 7.12502
lthumb 21.6131 38.1305
rfemur -24.1837 0.827176 29.1836
rtibia 32.8189
rfoot -18.1771 -5.54677
rtoes 6.16504
lfemur -23.0637 5.34452 -5.11121
ltibia 64.7782
lfoot -10.715 -17.6931
ltoes -16.4602
